<svg width="16" height="17" viewBox="0 0 16 17" fill="none" xmlns="http://www.w3.org/2000/svg">
<g opacity="0.25">
<path fill-rule="evenodd" clip-rule="evenodd" d="M4 8.49999C4 8.36738 4.05268 8.24021 4.14645 8.14644C4.24021 8.05267 4.36739 7.99999 4.5 7.99999H10.293L8.146 5.85399C8.05211 5.7601 7.99937 5.63277 7.99937 5.49999C7.99937 5.36722 8.05211 5.23988 8.146 5.14599C8.23989 5.0521 8.36722 4.99936 8.5 4.99936C8.63278 4.99936 8.76011 5.0521 8.854 5.14599L11.854 8.14599C11.9006 8.19244 11.9375 8.24761 11.9627 8.30836C11.9879 8.3691 12.0009 8.43422 12.0009 8.49999C12.0009 8.56576 11.9879 8.63088 11.9627 8.69162C11.9375 8.75237 11.9006 8.80755 11.854 8.85399L8.854 11.854C8.76011 11.9479 8.63278 12.0006 8.5 12.0006C8.36722 12.0006 8.23989 11.9479 8.146 11.854C8.05211 11.7601 7.99937 11.6328 7.99937 11.5C7.99937 11.3672 8.05211 11.2399 8.146 11.146L10.293 8.99999H4.5C4.36739 8.99999 4.24021 8.94731 4.14645 8.85354C4.05268 8.75978 4 8.6326 4 8.49999Z" fill="#0F172A"/>
</g>
</svg>
